<svg width="432" height="449" viewBox="0 0 432 449" fill="none" xmlns="http://www.w3.org/2000/svg">
<path d="M138.089 396.98V422H133.985V396.98H138.089ZM147.581 396.98V422H143.477V396.98H147.581ZM157.074 396.98V422H152.97V396.98H157.074ZM178.626 396.98V400.328H171.966V422H167.862V400.328H161.166V396.98H178.626ZM190.954 396.98C193.618 396.98 195.946 397.496 197.938 398.528C199.954 399.536 201.502 401 202.582 402.92C203.686 404.816 204.238 407.036 204.238 409.58C204.238 412.124 203.686 414.332 202.582 416.204C201.502 418.076 199.954 419.516 197.938 420.524C195.946 421.508 193.618 422 190.954 422H182.782V396.98H190.954ZM190.954 418.652C193.882 418.652 196.126 417.86 197.686 416.276C199.246 414.692 200.026 412.46 200.026 409.58C200.026 406.676 199.246 404.408 197.686 402.776C196.126 401.144 193.882 400.328 190.954 400.328H186.886V418.652H190.954ZM216.289 412.064C216.289 410.024 216.697 408.236 217.513 406.7C218.353 405.14 219.505 403.94 220.969 403.1C222.433 402.26 224.113 401.84 226.009 401.84C228.409 401.84 230.389 402.416 231.949 403.568C233.533 404.696 234.601 406.316 235.153 408.428H230.725C230.365 407.444 229.789 406.676 228.997 406.124C228.205 405.572 227.209 405.296 226.009 405.296C224.329 405.296 222.985 405.896 221.977 407.096C220.993 408.272 220.501 409.928 220.501 412.064C220.501 414.2 220.993 415.868 221.977 417.068C222.985 418.268 224.329 418.868 226.009 418.868C228.385 418.868 229.957 417.824 230.725 415.736H235.153C234.577 417.752 233.497 419.36 231.913 420.56C230.329 421.736 228.361 422.324 226.009 422.324C224.113 422.324 222.433 421.904 220.969 421.064C219.505 420.2 218.353 419 217.513 417.464C216.697 415.904 216.289 414.104 216.289 412.064ZM249.503 401.84C251.015 401.84 252.359 402.164 253.535 402.812C254.735 403.46 255.671 404.42 256.343 405.692C257.039 406.964 257.387 408.5 257.387 410.3V422H253.319V410.912C253.319 409.136 252.875 407.78 251.987 406.844C251.099 405.884 249.887 405.404 248.351 405.404C246.815 405.404 245.591 405.884 244.679 406.844C243.791 407.78 243.347 409.136 243.347 410.912V422H239.243V395.36H243.347V404.468C244.043 403.628 244.919 402.98 245.975 402.524C247.055 402.068 248.231 401.84 249.503 401.84ZM261.254 411.992C261.254 410 261.662 408.236 262.478 406.7C263.318 405.164 264.446 403.976 265.862 403.136C267.302 402.272 268.886 401.84 270.614 401.84C272.174 401.84 273.53 402.152 274.682 402.776C275.858 403.376 276.794 404.132 277.49 405.044V402.164H281.63V422H277.49V419.048C276.794 419.984 275.846 420.764 274.646 421.388C273.446 422.012 272.078 422.324 270.542 422.324C268.838 422.324 267.278 421.892 265.862 421.028C264.446 420.14 263.318 418.916 262.478 417.356C261.662 415.772 261.254 413.984 261.254 411.992ZM277.49 412.064C277.49 410.696 277.202 409.508 276.626 408.5C276.074 407.492 275.342 406.724 274.43 406.196C273.518 405.668 272.534 405.404 271.478 405.404C270.422 405.404 269.438 405.668 268.526 406.196C267.614 406.7 266.87 407.456 266.294 408.464C265.742 409.448 265.466 410.624 265.466 411.992C265.466 413.36 265.742 414.56 266.294 415.592C266.87 416.624 267.614 417.416 268.526 417.968C269.462 418.496 270.446 418.76 271.478 418.76C272.534 418.76 273.518 418.496 274.43 417.968C275.342 417.44 276.074 416.672 276.626 415.664C277.202 414.632 277.49 413.432 277.49 412.064ZM291.808 405.512V416.492C291.808 417.236 291.976 417.776 292.312 418.112C292.672 418.424 293.272 418.58 294.112 418.58H296.632V422H293.392C291.544 422 290.128 421.568 289.144 420.704C288.16 419.84 287.668 418.436 287.668 416.492V405.512H285.328V402.164H287.668V397.232H291.808V402.164H296.632V405.512H291.808Z" fill="#1F5C59"/>
<path d="M202.911 361C297.137 361 373.522 357.096 373.522 352.28C373.522 347.464 297.137 343.56 202.911 343.56C108.686 343.56 32.3013 347.464 32.3013 352.28C32.3013 357.096 108.686 361 202.911 361Z" fill="#F2F2F2"/>
<path d="M302.589 83.7821H300.651V30.7143C300.651 22.5683 297.414 14.7561 291.651 8.99601C285.888 3.23597 278.071 8.99371e-06 269.921 0H157.431C149.281 -1.54177e-05 141.465 3.23592 135.702 8.99594C129.939 14.756 126.701 22.5682 126.701 30.7142V321.849C126.701 329.995 129.939 337.807 135.702 343.567C141.465 349.327 149.281 352.563 157.431 352.563H269.921C278.071 352.563 285.887 349.327 291.65 343.567C297.413 337.807 300.651 329.995 300.651 321.849V121.557H302.589L302.589 83.7821Z" fill="#39AEA8"/>
<path d="M294.11 30.9286V321.635C294.11 327.718 291.692 333.552 287.388 337.854C283.084 342.156 277.247 344.573 271.16 344.573H158.131C152.044 344.573 146.207 342.156 141.903 337.854C137.599 333.552 135.181 327.718 135.181 321.635V30.9286C135.181 24.8451 137.599 19.0107 141.903 14.709C146.207 10.4073 152.044 7.99059 158.131 7.99048H171.843C171.169 9.6453 170.913 11.4403 171.096 13.2175C171.279 14.9946 171.896 16.6996 172.893 18.1824C173.891 19.6652 175.237 20.8803 176.814 21.7209C178.392 22.5615 180.151 23.0019 181.939 23.0032H246.383C248.171 23.0019 249.93 22.5615 251.508 21.7209C253.085 20.8803 254.432 19.6651 255.429 18.1824C256.426 16.6996 257.043 14.9946 257.226 13.2174C257.41 11.4403 257.153 9.6453 256.479 7.99048H271.16C277.247 7.99059 283.084 10.4073 287.388 14.709C291.692 19.0107 294.11 24.8451 294.11 30.9286V30.9286Z" fill="white"/>
<path d="M257.698 156.28C256.946 156.672 256.182 157.044 255.405 157.394C254.697 157.714 253.978 158.014 253.248 158.295C252.982 158.397 252.71 158.498 252.439 158.6C250.293 159.378 248.089 159.986 245.847 160.417C244.737 160.635 243.613 160.806 242.474 160.93C241.533 161.037 240.583 161.113 239.624 161.158C238.94 161.192 238.257 161.206 237.569 161.206C234.843 161.208 232.123 160.953 229.445 160.446C228.747 160.32 228.064 160.17 227.38 160.005C224.075 159.213 220.874 158.033 217.847 156.488C217.575 156.352 217.304 156.207 217.032 156.067C216.63 155.853 216.238 155.631 215.845 155.398C216.034 155.136 216.238 154.88 216.446 154.628C218.714 151.819 221.549 149.519 224.766 147.878C227.982 146.237 231.509 145.292 235.116 145.104C238.723 144.917 242.328 145.491 245.698 146.79C249.068 148.089 252.126 150.083 254.673 152.642C255.557 153.528 256.377 154.477 257.126 155.48C257.324 155.742 257.513 156.008 257.698 156.28Z" fill="#39AEA8"/>
<path d="M238.536 135C250.29 135 259.818 125.476 259.818 113.728C259.818 101.98 250.29 92.4567 238.536 92.4567C226.782 92.4567 217.253 101.98 217.253 113.728C217.253 125.476 226.782 135 238.536 135Z" fill="#2F2E41"/>
<path d="M244.196 135.03C251.873 130.836 254.694 121.216 250.498 113.544C246.301 105.872 236.677 103.052 229.001 107.246C221.325 111.44 218.504 121.06 222.7 128.732C226.896 136.404 236.52 139.224 244.196 135.03Z" fill="#A0616A"/>
<path d="M253.243 111.18C249.623 113.673 245.327 115 240.931 114.983C242.499 116.07 244.284 116.804 246.163 117.135C240.319 118.388 234.278 118.422 228.419 117.234C227.117 117.025 225.86 116.594 224.704 115.959C224.129 115.638 223.627 115.199 223.232 114.67C222.837 114.142 222.557 113.537 222.412 112.894C222.022 110.671 223.755 108.652 225.556 107.291C228.314 105.239 231.493 103.825 234.864 103.151C238.235 102.478 241.714 102.562 245.049 103.398C247.226 103.96 249.407 104.911 250.822 106.658C252.236 108.406 252.655 111.101 251.308 112.9L253.243 111.18Z" fill="#2F2E41"/>
<path d="M237.569 74.0077C228.055 74.0063 218.802 77.1138 211.22 82.8566C203.638 88.5994 198.142 96.6624 195.57 105.817C192.999 114.971 193.492 124.715 196.976 133.563C200.46 142.411 206.742 149.878 214.866 154.826L215.147 154.991C215.38 155.132 215.612 155.267 215.845 155.398C216.238 155.631 216.63 155.853 217.032 156.067C217.304 156.207 217.575 156.352 217.847 156.488C220.874 158.033 224.075 159.213 227.38 160.005C228.064 160.17 228.747 160.32 229.445 160.446C232.123 160.953 234.843 161.208 237.569 161.206C238.257 161.206 238.94 161.192 239.624 161.158C240.583 161.114 241.533 161.038 242.474 160.93C243.613 160.804 244.737 160.633 245.847 160.417C248.089 159.985 250.293 159.378 252.439 158.6C252.71 158.498 252.982 158.397 253.248 158.295C253.98 158.014 254.699 157.714 255.405 157.394C256.181 157.045 256.945 156.674 257.698 156.28C265.243 152.33 271.48 146.277 275.65 138.854C275.67 138.816 275.694 138.777 275.714 138.738C277.939 134.747 279.517 130.429 280.391 125.944C281.617 119.631 281.431 113.124 279.847 106.891C278.263 100.658 275.319 94.8516 271.227 89.8885C267.135 84.9253 261.995 80.9279 256.176 78.1824C250.357 75.4369 244.003 74.0113 237.569 74.0077H237.569ZM274.919 138.171C274.88 138.239 274.846 138.307 274.807 138.37C270.72 145.683 264.571 151.633 257.126 155.48C256.384 155.868 255.63 156.231 254.862 156.57C254.227 156.856 253.578 157.127 252.924 157.379C252.647 157.486 252.366 157.593 252.085 157.689C250.231 158.366 248.331 158.91 246.4 159.317C244.967 159.622 243.519 159.85 242.062 160C241.165 160.097 240.254 160.165 239.338 160.199C238.751 160.223 238.16 160.238 237.569 160.238C234.931 160.241 232.299 159.996 229.707 159.506C228.13 159.215 226.572 158.834 225.039 158.363C222.705 157.642 220.436 156.723 218.259 155.616C218.007 155.485 217.755 155.354 217.507 155.219C217.153 155.03 216.795 154.836 216.446 154.628C216.184 154.482 215.922 154.327 215.666 154.172C215.515 154.085 215.365 153.993 215.215 153.901C208.092 149.529 202.41 143.163 198.874 135.593C195.338 128.023 194.104 119.583 195.324 111.318C196.544 103.053 200.165 95.3281 205.738 89.1015C211.311 82.8749 218.59 78.4206 226.673 76.2912C234.755 74.1618 243.285 74.4509 251.205 77.1228C259.124 79.7948 266.085 84.7318 271.222 91.3215C276.36 97.9112 279.449 105.864 280.106 114.192C280.763 122.52 278.96 130.858 274.919 138.171H274.919Z" fill="#3F3D56"/>
<path d="M227.758 92.7502C227.529 90.3435 224.579 88.8619 222.273 89.5888C219.966 90.3158 218.451 92.6374 217.993 95.0112C217.773 96.0109 217.753 97.0443 217.933 98.052C218.113 99.0597 218.49 100.022 219.043 100.884C220.209 102.561 222.352 103.608 224.35 103.182C226.632 102.696 228.212 100.469 228.665 98.182C229.117 95.8947 228.668 93.5366 228.219 91.2486L227.758 92.7502Z" fill="#2F2E41"/>
<path d="M260.224 96.1883C259.995 93.7816 257.045 92.3 254.738 93.0269C252.431 93.7539 250.917 96.0755 250.459 98.4493C250.239 99.449 250.218 100.482 250.398 101.49C250.578 102.498 250.956 103.46 251.509 104.322C252.675 105.999 254.817 107.046 256.816 106.62C259.097 106.134 260.678 103.907 261.13 101.62C261.583 99.3328 261.133 96.9747 260.685 94.6867L260.224 96.1883Z" fill="#2F2E41"/>
<path d="M162.169 135.031C161.867 135.031 161.569 134.968 161.293 134.846C161.017 134.724 160.769 134.545 160.566 134.322L136.515 108.098C136.242 107.801 135.91 107.564 135.541 107.401C135.172 107.239 134.773 107.155 134.37 107.155H7.27482C5.34608 107.152 3.49696 106.386 2.13313 105.023C0.769311 103.659 0.00216548 101.811 0 99.8835V54.0739C0.0021642 52.1462 0.76931 50.298 2.13313 48.9349C3.49696 47.5718 5.34608 46.805 7.27482 46.8029H171.936C173.864 46.805 175.713 47.5718 177.077 48.9349C178.441 50.298 179.208 52.1462 179.21 54.0739V99.8835C179.208 101.811 178.441 103.659 177.077 105.023C175.713 106.386 173.864 107.152 171.936 107.155H167.267C166.496 107.155 165.756 107.462 165.21 108.008C164.665 108.553 164.358 109.292 164.357 110.064V132.848C164.359 133.288 164.227 133.718 163.978 134.081C163.73 134.444 163.377 134.723 162.966 134.881C162.712 134.98 162.442 135.031 162.169 135.031V135.031Z" fill="white"/>
<path d="M162.169 135.031C161.867 135.031 161.569 134.968 161.293 134.846C161.017 134.724 160.769 134.545 160.566 134.322L136.515 108.098C136.242 107.801 135.91 107.564 135.541 107.401C135.172 107.239 134.773 107.155 134.37 107.155H7.27482C5.34608 107.152 3.49696 106.386 2.13313 105.023C0.769311 103.659 0.00216548 101.811 0 99.8835V54.0739C0.0021642 52.1462 0.76931 50.298 2.13313 48.9349C3.49696 47.5718 5.34608 46.805 7.27482 46.8029H171.936C173.864 46.805 175.713 47.5718 177.077 48.9349C178.441 50.298 179.208 52.1462 179.21 54.0739V99.8835C179.208 101.811 178.441 103.659 177.077 105.023C175.713 106.386 173.864 107.152 171.936 107.155H167.267C166.496 107.155 165.756 107.462 165.21 108.008C164.665 108.553 164.358 109.292 164.357 110.064V132.848C164.359 133.288 164.227 133.718 163.978 134.081C163.73 134.444 163.377 134.723 162.966 134.881C162.712 134.98 162.442 135.031 162.169 135.031V135.031ZM7.27482 47.7717C5.60309 47.7736 4.00037 48.4382 2.81828 49.6197C1.63619 50.8012 0.971263 52.403 0.969376 54.0739V99.8835C0.971266 101.554 1.63619 103.156 2.81828 104.338C4.00038 105.519 5.60309 106.184 7.27482 106.186H134.37C134.907 106.186 135.439 106.298 135.931 106.515C136.424 106.731 136.866 107.047 137.229 107.443L161.281 133.667C161.446 133.847 161.661 133.973 161.899 134.029C162.137 134.084 162.387 134.066 162.614 133.978C162.842 133.889 163.038 133.734 163.176 133.533C163.314 133.331 163.388 133.092 163.388 132.848V110.064C163.389 109.035 163.798 108.05 164.525 107.323C165.253 106.596 166.239 106.187 167.267 106.186H171.936C173.607 106.184 175.21 105.519 176.392 104.338C177.574 103.156 178.239 101.554 178.241 99.8835V54.0739C178.239 52.403 177.574 50.8012 176.392 49.6197C175.21 48.4382 173.607 47.7736 171.936 47.7717H7.27482Z" fill="#3F3D56"/>
<path d="M17.8443 67.0108C21.36 67.0108 24.21 64.1622 24.21 60.6483C24.21 57.1345 21.36 54.2859 17.8443 54.2859C14.3286 54.2859 11.4785 57.1345 11.4785 60.6483C11.4785 64.1622 14.3286 67.0108 17.8443 67.0108Z" fill="#39AEA8"/>
<path d="M164.509 95.854H14.7016C14.2554 95.8545 13.8135 95.7672 13.4011 95.5969C12.9887 95.4266 12.614 95.1767 12.2983 94.8616C11.9826 94.5464 11.7321 94.1722 11.5613 93.7602C11.3904 93.3482 11.3024 92.9067 11.3024 92.4607C11.3024 92.0147 11.3904 91.5732 11.5613 91.1612C11.7321 90.7492 11.9826 90.375 12.2983 90.0598C12.614 89.7447 12.9887 89.4948 13.4011 89.3245C13.8135 89.1542 14.2554 89.0669 14.7016 89.0674H164.509C165.409 89.0685 166.271 89.4264 166.907 90.0627C167.543 90.6989 167.9 91.5614 167.9 92.4607C167.9 93.36 167.543 94.2224 166.907 94.8587C166.271 95.4949 165.409 95.8529 164.509 95.854V95.854Z" fill="#E6E6E6"/>
<path d="M115.705 81.4324H14.7016C14.2554 81.4329 13.8135 81.3455 13.4011 81.1752C12.9887 81.0049 12.614 80.7551 12.2983 80.4399C11.9826 80.1248 11.7321 79.7505 11.5613 79.3386C11.3904 78.9266 11.3024 78.485 11.3024 78.0391C11.3024 77.5931 11.3904 77.1515 11.5613 76.7396C11.7321 76.3276 11.9826 75.9534 12.2983 75.6382C12.614 75.3231 12.9887 75.0732 13.4011 74.9029C13.8135 74.7326 14.2554 74.6452 14.7016 74.6458H115.705C116.605 74.6458 117.469 75.0033 118.105 75.6396C118.742 76.276 119.1 77.1391 119.1 78.0391C119.1 78.939 118.742 79.8021 118.105 80.4385C117.469 81.0749 116.605 81.4324 115.705 81.4324Z" fill="#E6E6E6"/>
<path d="M269.034 290.385C268.623 290.228 268.27 289.949 268.022 289.586C267.773 289.223 267.641 288.793 267.643 288.353V265.568C267.642 264.797 267.335 264.057 266.79 263.512C266.244 262.967 265.504 262.66 264.733 262.659H260.064C258.136 262.657 256.287 261.89 254.923 260.527C253.559 259.164 252.792 257.316 252.79 255.388V209.578C252.792 207.651 253.559 205.803 254.923 204.439C256.287 203.076 258.136 202.31 260.064 202.307H424.725C426.654 202.31 428.503 203.076 429.867 204.439C431.231 205.803 431.998 207.651 432 209.578V255.388C431.998 257.316 431.231 259.164 429.867 260.527C428.503 261.89 426.654 262.657 424.725 262.659H297.63C297.227 262.66 296.828 262.744 296.459 262.906C296.09 263.068 295.758 263.305 295.485 263.602L271.434 289.827C271.231 290.05 270.983 290.228 270.707 290.35C270.431 290.472 270.133 290.536 269.831 290.536C269.558 290.536 269.288 290.485 269.034 290.385V290.385Z" fill="white"/>
<path d="M269.034 290.385C268.623 290.228 268.27 289.949 268.022 289.586C267.773 289.223 267.641 288.793 267.643 288.353V265.568C267.642 264.797 267.335 264.057 266.79 263.512C266.244 262.967 265.504 262.66 264.733 262.659H260.064C258.136 262.657 256.287 261.89 254.923 260.527C253.559 259.164 252.792 257.316 252.79 255.388V209.578C252.792 207.651 253.559 205.803 254.923 204.439C256.287 203.076 258.136 202.31 260.064 202.307H424.725C426.654 202.31 428.503 203.076 429.867 204.439C431.231 205.803 431.998 207.651 432 209.578V255.388C431.998 257.316 431.231 259.164 429.867 260.527C428.503 261.89 426.654 262.657 424.725 262.659H297.63C297.227 262.66 296.828 262.744 296.459 262.906C296.09 263.068 295.758 263.305 295.485 263.602L271.434 289.827C271.231 290.05 270.983 290.228 270.707 290.35C270.431 290.472 270.133 290.536 269.831 290.536C269.558 290.536 269.288 290.485 269.034 290.385V290.385ZM260.064 203.276C258.393 203.278 256.79 203.943 255.608 205.124C254.426 206.306 253.761 207.908 253.759 209.578V255.388C253.761 257.059 254.426 258.661 255.608 259.842C256.79 261.024 258.393 261.688 260.064 261.69H264.733C265.761 261.691 266.747 262.1 267.475 262.827C268.202 263.554 268.611 264.54 268.612 265.568V288.353C268.612 288.597 268.686 288.835 268.824 289.037C268.962 289.239 269.158 289.394 269.386 289.482C269.613 289.571 269.863 289.589 270.101 289.533C270.339 289.478 270.554 289.352 270.719 289.172L294.771 262.948C295.134 262.552 295.576 262.236 296.069 262.019C296.561 261.803 297.093 261.691 297.63 261.69H424.725C426.397 261.688 428 261.024 429.182 259.842C430.364 258.661 431.029 257.059 431.031 255.388V209.578C431.029 207.908 430.364 206.306 429.182 205.124C428 203.943 426.397 203.278 424.725 203.276H260.064Z" fill="#3F3D56"/>
<path d="M217.711 304.571C210.959 308.892 203.135 311.249 195.118 311.376C187.101 311.504 179.206 309.397 172.32 305.293C173.531 303.039 175.066 300.974 176.876 299.164C179.668 296.36 183.067 294.233 186.81 292.946C190.553 291.66 194.542 291.248 198.469 291.742C202.397 292.237 206.158 293.624 209.465 295.799C212.772 297.973 215.537 300.876 217.546 304.285C217.599 304.377 217.658 304.474 217.711 304.571Z" fill="#39AEA8"/>
<path d="M193.12 281.405C204.952 281.405 214.544 271.818 214.544 259.992C214.544 248.166 204.952 238.579 193.12 238.579C181.288 238.579 171.696 248.166 171.696 259.992C171.696 271.818 181.288 281.405 193.12 281.405Z" fill="#2F2E41"/>
<path d="M209.062 275.095C213.286 267.372 210.446 257.689 202.719 253.467C194.992 249.245 185.303 252.084 181.079 259.807C176.855 267.53 179.695 277.213 187.422 281.435C195.149 285.657 204.838 282.819 209.062 275.095Z" fill="#FFB8B8"/>
<path d="M178.316 257.427C181.959 259.937 186.284 261.272 190.71 261.255C189.131 262.349 187.334 263.088 185.442 263.421C191.326 264.682 197.407 264.716 203.305 263.521C204.615 263.311 205.88 262.877 207.044 262.237C207.624 261.914 208.129 261.472 208.526 260.94C208.924 260.409 209.205 259.8 209.352 259.152C209.744 256.915 207.999 254.882 206.186 253.512C203.411 251.446 200.21 250.023 196.817 249.345C193.423 248.667 189.921 248.752 186.564 249.593C184.372 250.159 182.177 251.116 180.753 252.875C179.329 254.634 178.907 257.347 180.264 259.158L178.316 257.427Z" fill="#2F2E41"/>
<path d="M194.431 311.866C183.939 311.863 173.8 308.079 165.873 301.208C157.947 294.337 152.764 284.84 151.277 274.459C149.79 264.078 152.097 253.509 157.775 244.691C163.454 235.873 172.123 229.397 182.193 226.45C192.263 223.504 203.058 224.285 212.598 228.651C222.138 233.016 229.783 240.673 234.132 250.217C238.48 259.761 239.24 270.551 236.272 280.61C233.304 290.669 226.807 299.32 217.973 304.978C210.948 309.481 202.777 311.872 194.431 311.866V311.866ZM194.431 225.637C185.994 225.636 177.747 228.136 170.731 232.82C163.716 237.505 158.248 244.163 155.019 251.954C151.789 259.744 150.944 268.317 152.59 276.588C154.236 284.858 158.299 292.456 164.265 298.418C170.23 304.381 177.831 308.442 186.106 310.087C194.381 311.732 202.959 310.887 210.753 307.66C218.548 304.432 225.21 298.967 229.897 291.955C234.583 284.943 237.085 276.7 237.084 268.267C237.071 256.965 232.573 246.129 224.577 238.137C216.581 230.145 205.74 225.649 194.431 225.637V225.637Z" fill="#3F3D56"/>
<path d="M273.275 222.031C276.791 222.031 279.641 219.182 279.641 215.668C279.641 212.154 276.791 209.306 273.275 209.306C269.759 209.306 266.909 212.154 266.909 215.668C266.909 219.182 269.759 222.031 273.275 222.031Z" fill="#39AEA8"/>
<path d="M419.939 250.874H270.132C269.686 250.875 269.244 250.787 268.832 250.617C268.419 250.447 268.045 250.197 267.729 249.882C267.413 249.566 267.163 249.192 266.992 248.78C266.821 248.368 266.733 247.927 266.733 247.481C266.733 247.035 266.821 246.593 266.992 246.181C267.163 245.769 267.413 245.395 267.729 245.08C268.045 244.765 268.419 244.515 268.832 244.345C269.244 244.174 269.686 244.087 270.132 244.087H419.939C420.84 244.087 421.703 244.445 422.34 245.081C422.977 245.718 423.335 246.581 423.335 247.481C423.335 248.381 422.977 249.244 422.34 249.88C421.703 250.517 420.84 250.874 419.939 250.874Z" fill="#E6E6E6"/>
<path d="M371.135 236.452H270.132C269.686 236.453 269.244 236.366 268.832 236.195C268.419 236.025 268.045 235.775 267.729 235.46C267.413 235.145 267.163 234.771 266.992 234.359C266.821 233.947 266.733 233.505 266.733 233.059C266.733 232.613 266.821 232.172 266.992 231.76C267.163 231.348 267.413 230.973 267.729 230.658C268.045 230.343 268.419 230.093 268.832 229.923C269.244 229.753 269.686 229.665 270.132 229.666H371.135C372.035 229.667 372.898 230.025 373.533 230.661C374.169 231.297 374.526 232.16 374.526 233.059C374.526 233.958 374.169 234.821 373.533 235.457C372.898 236.093 372.035 236.451 371.135 236.452V236.452Z" fill="#E6E6E6"/>
<path d="M268.829 294.722C275.388 294.722 280.706 294.132 280.706 293.405C280.706 292.677 275.388 292.087 268.829 292.087C262.27 292.087 256.952 292.677 256.952 293.405C256.952 294.132 262.27 294.722 268.829 294.722Z" fill="#F2F2F2"/>
<path d="M162.682 139.702C169.242 139.702 174.559 139.112 174.559 138.385C174.559 137.657 169.242 137.067 162.682 137.067C156.123 137.067 150.806 137.657 150.806 138.385C150.806 139.112 156.123 139.702 162.682 139.702Z" fill="#F2F2F2"/>
</svg>
